<?xml version="1.0" encoding="utf-8" ?>
<svg baseProfile="full" height="200mm" version="1.1" viewBox="0,0,200,200" width="200mm" xmlns="http://www.w3.org/2000/svg" xmlns:ev="http://www.w3.org/2001/xml-events" xmlns:xlink="http://www.w3.org/1999/xlink"><defs /><rect fill="#1a1a1a" height="200" width="200" x="0" y="0" /><text alignment-baseline="middle" fill="#e1ed5e" style="dominant-baseline: central; font-size:9.0px; font-family:Arial;" text-anchor="middle" x="100.0" y="100.0">2019</text><line stroke="#e1ed5e" stroke-width="0.3" x1="100.0" x2="100.0" y1="15.0" y2="10.0" /><path d="M 100.0 14.0 a86.0,86.0 0 0,1 42.46469731375804,11.215312516191453" fill="none" id="id25" stroke="none" /><text fill="#e1ed5e" style="font-size:6.75px; font-family:Arial;" text-anchor="middle"><textPath startOffset="22.20632615414155" xlink:href="#id25">January</textPath></text><path d="M 100.36148047927253 79.00311137660856 l 0.07582648363383768 -4.404443179801053 a25.405095842284965,25.405095842284965 0 0,0 0.43717737941539964,0.01129100191139621 l -0.15163049824410507 4.402485385747297" fill="#ff0701" stroke="none" /><path d="M 101.08401301168833 79.027996857942 l 1.511555975491077 -29.24352044264 a50.28255947396242,50.28255947396242 0 0,0 0.8639931304611886,0.05211842509231328 l -2.0147111547918777 29.213168748167384" fill="#a7ff21" stroke="none" /><path d="M 101.80526077348638 79.07773832637324 l 1.7328716478356274 -20.083300205325944 a41.15792130367409,41.15792130367409 0 0,0 0.7053191284947353,0.06697854997334325 l -2.078315903420607 20.050496110837422" fill="#ffe615" stroke="none" /><path d="M 109.08828744355905 81.06846463323043 l 1.7134576999927422 -3.5692516602636273 a24.95922905424264,24.95922905424264 0 0,0 0.38571366577951344,0.1892680206619485 l -1.7746426327826876 3.539228479466847" fill="#ff0000" stroke="none" /><line stroke="#e1ed5e" stroke-width="0.3" x1="143.23703022742887" x2="145.7803849466894" y1="26.81831364943548" y2="22.513508569990506" /><path d="M 143.74570117128098 25.957352633546492 a86.0,86.0 0 0,1 28.547481713284135,27.462654790039103" fill="none" id="id26" stroke="none" /><text fill="#e1ed5e" style="font-size:6.75px; font-family:Arial;" text-anchor="middle"><textPath startOffset="19.985693538727396" xlink:href="#id26">February</textPath></text><line stroke="#e1ed5e" stroke-width="0.3" x1="172.23445277983987" x2="176.4835382374775" y1="55.19839476539836" y2="52.563006222186495" /><path d="M 173.08426987136738 54.67131705675599 a86.0,86.0 0 0,1 12.851231095245387,41.99856678651699" fill="none" id="id27" stroke="none" /><text fill="#e1ed5e" style="font-size:6.75px; font-family:Arial;" text-anchor="middle"><textPath startOffset="22.20632615414155" xlink:href="#id27">March</textPath></text><path d="M 119.34039704204932 91.81776055985345 l 10.526887917057477 -4.453554769826123 a32.430202067598444,32.430202067598444 0 0,0 0.21307926548699935,0.5159883426725004 l -10.601988869430675 4.27169185670032" fill="#ff6f0a" stroke="none" /><path d="M 120.08093135843002 93.85539295169968 l 38.66231803700816 -11.830365219295398 a61.431823817590534,61.431823817590534 0 0,0 0.3007061532438657,1.0138316597019754 l -38.86023008736373 11.163104172846893" fill="#30ff32" stroke="none" /><line stroke="#e1ed5e" stroke-width="0.3" x1="184.98032266829074" x2="189.97916517819016" y1="98.17113171792111" y2="98.06355123074" /><path d="M 185.9800911702706 98.14961562048488 a86.0,86.0 0 0,1 -9.607161424134198,41.387399972396054" fill="none" id="id28" stroke="none" /><text fill="#e1ed5e" style="font-size:6.75px; font-family:Arial;" text-anchor="middle"><textPath startOffset="21.466115282336823" xlink:href="#id28">April</textPath></text><line stroke="#e1ed5e" stroke-width="0.3" x1="174.80103733775053" x2="179.2010983576182" y1="140.37084112569926" y2="142.7455964860345" /><path d="M 175.68104954172406 140.8457921977663 a86.0,86.0 0 0,1 -30.038265399797805,32.042727171017184" fill="none" id="id29" stroke="none" /><text fill="#e1ed5e" style="font-size:6.75px; font-family:Arial;" text-anchor="middle"><textPath startOffset="22.206326154141568" xlink:href="#id29">May</textPath></text><path d="M 116.27256486870786 113.27417163493432 l 31.50031183543411 25.69604418425701 a61.65164612225289,61.65164612225289 0 0,0 -0.6778862715607575,0.8165576833004813 l -31.05332956397981 -26.23446312467126" fill="#30ff34" stroke="none" /><path d="M 111.1453310114006 117.79835938074945 l 8.305090249563921 13.26268199662211 a36.6484266875915,36.6484266875915 0 0,0 -0.5375465575968602,0.3302050000898558 l -8.075564492034752 -13.403675463540344" fill="#ffaa0f" stroke="none" /><line stroke="#e1ed5e" stroke-width="0.3" x1="143.8653032363475" x2="146.44561519142675" y1="172.8068346515853" y2="177.08958963109032" /><path d="M 144.38136562736335 173.6633856474863 a86.0,86.0 0 0,1 -40.68145358897372,12.25698825130547" fill="none" id="id30" stroke="none" /><text fill="#e1ed5e" style="font-size:6.75px; font-family:Arial;" text-anchor="middle"><textPath startOffset="21.466115282336833" xlink:href="#id30">June</textPath></text><path d="M 110.8373102113329 117.98757091392108 l 32.51193063399873 53.96271274176323 a84.0,84.0 0 0,0 -1.2449285158864716,0.735525710825002 l -31.578234247083873 -54.514357024881974" fill="#4dd2ff" stroke="none" /><path d="M 108.59647513512805 119.15986991738527 l 21.10942151094582 47.04879195523339 a72.5673976556275,72.5673976556275 0 0,0 -1.1440745265556025,0.5015286511908785 l -20.296426309732464 -47.40518515971873" fill="#3effb6" stroke="none" /><path d="M 106.91757812671514 119.82793768551818 l 14.895990747857136 42.69655808756569 a66.2204225199756,66.2204225199756 0 0,0 -1.0794883298225197,0.36622105132448735 l -14.158832685097389 -42.9466421257883" fill="#36ff6d" stroke="none" /><path d="M 103.41894727170886 120.7198165907248 l 6.114702152302913 37.056876586254425 a58.55797764444019,58.55797764444019 0 0,0 -0.9959433102003925,0.15554586244462926 l -5.475922978494003 -37.156640756046166" fill="#4bff2c" stroke="none" /><path d="M 102.34483914955558 120.86867818915974 l 5.775634146123083 51.402182685583675 a72.72564484500876,72.72564484500876 0 0,0 -1.2452272036715686,0.12907289108741402 l -4.8899743458459115 -51.49398494512685" fill="#3effb8" stroke="none" /><line stroke="#e1ed5e" stroke-width="0.3" x1="102.19456741930631" x2="102.32365962044197" y1="184.97166512339345" y2="189.96999836594603" /><path d="M 102.22038585953345 185.97133177190398 a86.0,86.0 0 0,1 -42.740103519485714,-10.115201625700543" fill="none" id="id31" stroke="none" /><text fill="#e1ed5e" style="font-size:6.75px; font-family:Arial;" text-anchor="middle"><textPath startOffset="22.20632615414155" xlink:href="#id31">July</textPath></text><line stroke="#e1ed5e" stroke-width="0.3" x1="58.666819895761336" x2="56.23545636021788" y1="174.27360380694188" y2="178.64263932499728" /><path d="M 58.180547188652646 175.14741091055294 a86.0,86.0 0 0,1 -31.652253787137756,-30.449443065178592" fill="none" id="id32" stroke="none" /><text fill="#e1ed5e" style="font-size:6.75px; font-family:Arial;" text-anchor="middle"><textPath startOffset="22.20632615414155" xlink:href="#id32">August</textPath></text><line stroke="#e1ed5e" stroke-width="0.3" x1="26.63291911575756" x2="22.317208475507996" y1="142.92168965132927" y2="145.44649492493687" /><path d="M 25.769776987707644 143.4266507060508 a86.0,86.0 0 0,1 -11.730757126820373,-40.83630448921669" fill="none" id="id33" stroke="none" /><text fill="#e1ed5e" style="font-size:6.75px; font-family:Arial;" text-anchor="middle"><textPath startOffset="21.46611528233685" xlink:href="#id33">September</textPath></text><line stroke="#e1ed5e" stroke-width="0.3" x1="15.007084014347285" x2="10.007500721073583" y1="101.09737516637583" y2="101.16192664675087" /><path d="M 14.007167355692545 101.11028546245083 a86.0,86.0 0 0,1 10.666146001902534,-42.60595125391555" fill="none" id="id34" stroke="none" /><text fill="#e1ed5e" style="font-size:6.75px; font-family:Arial;" text-anchor="middle"><textPath startOffset="22.20632615414155" xlink:href="#id34">October</textPath></text><line stroke="#e1ed5e" stroke-width="0.3" x1="26.266209847984243" x2="21.928928074336255" y1="57.711370442889674" y2="55.22380399835377" /><path d="M 25.398753493254645 57.213857153982495 a86.0,86.0 0 0,1 29.58750427330803,-30.492523968695096" fill="none" id="id35" stroke="none" /><text fill="#e1ed5e" style="font-size:6.75px; font-family:Arial;" text-anchor="middle"><textPath startOffset="21.46611528233685" xlink:href="#id35">November</textPath></text><line stroke="#e1ed5e" stroke-width="0.3" x1="56.76296977257108" x2="54.21961505331056" y1="26.818313649435495" y2="22.513508569990535" /><path d="M 56.25429882871898 25.957352633546506 a86.0,86.0 0 0,1 42.26535254187918,-11.944610805530505" fill="none" id="id36" stroke="none" /><text fill="#e1ed5e" style="font-size:6.75px; font-family:Arial;" text-anchor="middle"><textPath startOffset="22.20632615414155" xlink:href="#id36">December</textPath></text></svg>