<?xml version="1.0" encoding="utf-8" ?>
<svg baseProfile="full" height="200mm" version="1.1" viewBox="0,0,200,200" width="200mm" xmlns="http://www.w3.org/2000/svg" xmlns:ev="http://www.w3.org/2001/xml-events" xmlns:xlink="http://www.w3.org/1999/xlink"><defs /><rect fill="#1a1a1a" height="200" width="200" x="0" y="0" /><text alignment-baseline="middle" fill="#e1ed5e" style="dominant-baseline: central; font-size:9.0px; font-family:Arial;" text-anchor="middle" x="100.0" y="100.0">2017</text><line stroke="#e1ed5e" stroke-width="0.3" x1="100.0" x2="100.0" y1="15.0" y2="10.0" /><path d="M 100.0 14.0 a86.0,86.0 0 0,1 42.46469731375804,11.215312516191453" fill="none" id="id1" stroke="none" /><text fill="#e1ed5e" style="font-size:6.75px; font-family:Arial;" text-anchor="middle"><textPath startOffset="22.20632615414155" xlink:href="#id1">January</textPath></text><line stroke="#e1ed5e" stroke-width="0.3" x1="143.23703022742887" x2="145.7803849466894" y1="26.81831364943548" y2="22.513508569990506" /><path d="M 143.74570117128098 25.957352633546492 a86.0,86.0 0 0,1 28.547481713284135,27.462654790039103" fill="none" id="id2" stroke="none" /><text fill="#e1ed5e" style="font-size:6.75px; font-family:Arial;" text-anchor="middle"><textPath startOffset="19.985693538727396" xlink:href="#id2">February</textPath></text><line stroke="#e1ed5e" stroke-width="0.3" x1="172.23445277983987" x2="176.4835382374775" y1="55.19839476539836" y2="52.563006222186495" /><path d="M 173.08426987136738 54.67131705675599 a86.0,86.0 0 0,1 12.851231095245387,41.99856678651699" fill="none" id="id3" stroke="none" /><text fill="#e1ed5e" style="font-size:6.75px; font-family:Arial;" text-anchor="middle"><textPath startOffset="22.20632615414155" xlink:href="#id3">March</textPath></text><line stroke="#e1ed5e" stroke-width="0.3" x1="184.98032266829074" x2="189.97916517819016" y1="98.17113171792111" y2="98.06355123074" /><path d="M 185.9800911702706 98.14961562048488 a86.0,86.0 0 0,1 -9.607161424134198,41.387399972396054" fill="none" id="id4" stroke="none" /><text fill="#e1ed5e" style="font-size:6.75px; font-family:Arial;" text-anchor="middle"><textPath startOffset="21.466115282336823" xlink:href="#id4">April</textPath></text><line stroke="#e1ed5e" stroke-width="0.3" x1="174.80103733775053" x2="179.2010983576182" y1="140.37084112569926" y2="142.7455964860345" /><path d="M 175.68104954172406 140.8457921977663 a86.0,86.0 0 0,1 -30.038265399797805,32.042727171017184" fill="none" id="id5" stroke="none" /><text fill="#e1ed5e" style="font-size:6.75px; font-family:Arial;" text-anchor="middle"><textPath startOffset="22.206326154141568" xlink:href="#id5">May</textPath></text><line stroke="#e1ed5e" stroke-width="0.3" x1="143.8653032363475" x2="146.44561519142675" y1="172.8068346515853" y2="177.08958963109032" /><path d="M 144.38136562736335 173.6633856474863 a86.0,86.0 0 0,1 -40.68145358897372,12.25698825130547" fill="none" id="id6" stroke="none" /><text fill="#e1ed5e" style="font-size:6.75px; font-family:Arial;" text-anchor="middle"><textPath startOffset="21.466115282336833" xlink:href="#id6">June</textPath></text><line stroke="#e1ed5e" stroke-width="0.3" x1="102.19456741930631" x2="102.32365962044197" y1="184.97166512339345" y2="189.96999836594603" /><path d="M 102.22038585953345 185.97133177190398 a86.0,86.0 0 0,1 -42.740103519485714,-10.115201625700543" fill="none" id="id7" stroke="none" /><text fill="#e1ed5e" style="font-size:6.75px; font-family:Arial;" text-anchor="middle"><textPath startOffset="22.20632615414155" xlink:href="#id7">July</textPath></text><path d="M 97.2962882734958 120.8252237178851 l -8.111135179512582 62.47567115365527 a84.0,84.0 0 0,0 -1.4322856352526758,-0.19850173802958038 l 9.185349405952088 -62.32679485013308" fill="#4dd2ff" stroke="none" /><path d="M 94.81253420990036 120.34920634021253 l -0.14862822034140455 0.5830334976816726 a21.601679655049743,21.601679655049743 0 0,0 -0.3595234995602141,-0.09495342389209113 l 0.15864216271310794 -0.5803887244859998" fill="#ff0400" stroke="none" /><path d="M 94.46302465271185 120.25689768951611 l -0.2869160373336047 1.0496757614416286 a22.088181977721227,22.088181977721227 0 0,0 -0.36589476491821915,-0.1034055153899095 l 0.3049419703564378 -1.0445814527131978" fill="#ff0b01" stroke="none" /><path d="M 94.11515582081647 120.15858648285463 l -0.125425648444387 0.4296466829619757 a21.447580010129947,21.447580010129947 0 0,0 -0.35350210377148095,-0.10650728404437237 l 0.1328027266561138 -0.42742402981187777" fill="#ff0200" stroke="none" /><line stroke="#e1ed5e" stroke-width="0.3" x1="58.666819895761336" x2="56.23545636021788" y1="174.27360380694188" y2="178.64263932499728" /><path d="M 58.180547188652646 175.14741091055294 a86.0,86.0 0 0,1 -31.652253787137756,-30.449443065178592" fill="none" id="id8" stroke="none" /><text fill="#e1ed5e" style="font-size:6.75px; font-family:Arial;" text-anchor="middle"><textPath startOffset="22.20632615414155" xlink:href="#id8">August</textPath></text><path d="M 85.97065885151581 115.62618273729859 l -4.205210106328953 4.683853708791653 a27.29462291195688,27.29462291195688 0 0,0 -0.34690224534921615,-0.3168869761536571 l 4.2852119011450265 -4.6107739660514175" fill="#ff5407" stroke="none" /><path d="M 83.72743513129214 113.27417163493432 l -9.589129308723653 7.8222301954593085 a33.37492166157743,33.37492166157743 0 0,0 -0.35930818925023217,-0.44829221224938176 l 9.722355410028745 -7.656010149631667" fill="#ffa50f" stroke="none" /><path d="M 83.28015986056508 112.70617746262583 l -8.226701919537927 6.251850116391501 a31.33267895324119,31.33267895324119 0 0,0 -0.3226351813284973,-0.4322225496773249 l 8.333098367561508 -6.10931468720487" fill="#ff8a0c" stroke="none" /><path d="M 83.06392112726016 112.41649034213515 l -38.1288382403417 27.953716756129346 a68.27809837588701,68.27809837588701 0 0,0 -0.6867482911977882,-0.9538333117707767 l 38.604366323915094 -27.29324983890743" fill="#3aff90" stroke="none" /><path d="M 82.44556493220864 111.52570212397912 l -1.4009580882181116 0.9198259898780538 a22.675936578930983,22.675936578930983 0 0,0 -0.2114208619297733,-0.32812987275658356 l 1.4165838135249307 -0.8955745172000219" fill="#ff1302" stroke="none" /><path d="M 82.24976979558568 111.22182372390057 l -1.7776630734853114 1.1238514329903406 a23.1031234025296,23.1031234025296 0 0,0 -0.2096172353474599,-0.3379697269608625 l 1.7967449485007272 -1.093085374664214" fill="#ff1a02" stroke="none" /><line stroke="#e1ed5e" stroke-width="0.3" x1="26.63291911575756" x2="22.317208475507996" y1="142.92168965132927" y2="145.44649492493687" /><path d="M 25.769776987707644 143.4266507060508 a86.0,86.0 0 0,1 -11.730757126820373,-40.83630448921669" fill="none" id="id9" stroke="none" /><text fill="#e1ed5e" style="font-size:6.75px; font-family:Arial;" text-anchor="middle"><textPath startOffset="21.46611528233685" xlink:href="#id9">September</textPath></text><path d="M 81.87401531095188 110.60418214915194 l -0.2814531226220885 0.1646575471585569 a21.326079695887366,21.326079695887366 0 0,0 -0.1826406125333648,-0.31844930277497097 l 0.28424573130783054 -0.15978839852527896" fill="#ff0000" stroke="none" /><path d="M 81.02952815118164 109.00673069616217 l -2.7818925949769358 1.3207767117382303 a24.079509300563576,24.079509300563576 0 0,0 -0.1745482156946308,-0.37596132806798294 l 2.804215427511393 -1.2726953163914203" fill="#ff2703" stroke="none" /><path d="M 80.87730276802145 108.67885076344099 l -2.297076560488043 1.042529953741854 a23.522583879515718,23.522583879515718 0 0,0 -0.16416401798568123,-0.3701465225226698 l 2.3146816632050045 -1.0028350947264884" fill="#ff1f03" stroke="none" /><path d="M 80.58989483394504 108.01547362559985 l -4.460594623800662 1.8420187966881343 a25.825964944467767,25.825964944467767 0 0,0 -0.16614382610847345,-0.4123553510452186 l 4.491641064166524 -1.7649640778001103" fill="#ff4006" stroke="none" /><path d="M 80.20201598880116 107.00284435728193 l -7.594394858727608 2.6862515472953525 a29.055481403716044,29.055481403716044 0 0,0 -0.16272338211597723,-0.4729503175557837 l 7.639509071786814 -2.555128526650272" fill="#ff6c09" stroke="none" /><path d="M 79.97269907076064 106.31721596034903 l -7.7004691920060875 2.4289606998862037 a29.07447062404877,29.07447062404877 0 0,0 -0.14644288550387335,-0.4785838229553091 l 7.741138850016092 -2.296049904378847" fill="#ff6c0a" stroke="none" /><path d="M 79.86692584326677 105.97154293290107 l -2.9424401172751686 0.8727384278730629 a24.06914095590878,24.06914095590878 0 0,0 -0.11439416624885389,-0.39822109981698417 l 2.9570269204101267 -0.8219598525514827" fill="#ff2703" stroke="none" /><path d="M 79.76711848015287 105.62410040840567 l -33.556087092046894 9.327529691396286 a55.82834752142162,55.82834752142162 0 0,0 -0.2493983178878379,-0.9281039193121532 l 33.7116734862765 -8.748534838908594" fill="#57ff2a" stroke="none" /><path d="M 79.35854240842038 103.8639653848113 l -2.658334920178155 0.4976254252991166 a23.704510235096684,23.704510235096684 0 0,0 -0.07162550033447614,-0.4017138436058824 l 2.66650686285182 -0.45179283096002043" fill="#ff2203" stroke="none" /><path d="M 79.18660465613746 102.79330883721812 l -3.0470634845606708 0.4089380525555533 a24.074382248480326,24.074382248480326 0 0,0 -0.051586231761718365,-0.4111930232870604 l 3.053651225569237 -0.3564272749810843" fill="#ff2703" stroke="none" /><path d="M 79.1416061653843 102.43462659150553 l -3.7010532558325644 0.4319931220338905 a24.726179445490168,24.726179445490168 0 0,0 -0.045705398987901213,-0.42317523040219357 l 3.7079409563215173 -0.36822156974691483" fill="#ff3004" stroke="none" /><path d="M 79.10278846688536 102.07522291339032 l -2.834377803747586 0.28147132234466227 a23.848319441298578,23.848319441298578 0 0,0 -0.03705052618503044,-0.4088494690812642 l 2.8388029262096923 -0.2326404647148319" fill="#ff2403" stroke="none" /><path d="M 79.07016306316243 101.71520430193888 l -13.127576707843206 1.0758075235500366 a34.17158426492555,34.17158426492555 0 0,0 -0.04299670724623722,-0.5866559093319169 l 13.144149973753777 -0.8496784777213591" fill="#ffaf10" stroke="none" /><line stroke="#e1ed5e" stroke-width="0.3" x1="15.007084014347285" x2="10.007500721073583" y1="101.09737516637583" y2="101.16192664675087" /><path d="M 14.007167355692545 101.11028546245083 a86.0,86.0 0 0,1 10.666146001902534,-42.60595125391555" fill="none" id="id10" stroke="none" /><text fill="#e1ed5e" style="font-size:6.75px; font-family:Arial;" text-anchor="middle"><textPath startOffset="22.20632615414155" xlink:href="#id10">October</textPath></text><path d="M 79.00175016825051 100.2711162175752 l -55.47983753239907 0.7163208278781439 a76.4844616820768,76.4844616820768 0 0,0 -0.005666051635700466,-1.316590855369759 l 55.483947881324276 0.23877950569529036" fill="#44ffe5" stroke="none" /><path d="M 79.05617556472873 98.46500227214037 l -1.1391682653625133 -0.08349099298389955 a22.14222374459581,22.14222374459581 0 0,0 0.03113145644968474,-0.3798826217737782 l 1.1375623250933313 0.1030875319654561" fill="#ff0c01" stroke="none" /><path d="M 79.08570108090925 98.10471618934814 l -2.162677391393975 -0.1959849318128605 a23.171539452265222,23.171539452265222 0 0,0 0.03941685674297859,-0.3969223682013078 l 2.158983408968768 0.23318283071859855" fill="#ff1a02" stroke="none" /><path d="M 79.3925641242962 95.95851677861259 l -2.840386288362419 -0.5570500665834791 a23.89449460939175,23.89449460939175 0 0,0 0.08263023915663789,-0.4029343916599033 l 2.8303767532907864 0.6058601144067849" fill="#ff2503" stroke="none" /><path d="M 79.46518482838121 95.60439243477599 l -8.5139575144683 -1.8224666619992982 a29.706828199308294,29.706828199308294 0 0,0 0.11133781541198644,-0.4991055953402305 l 8.481325312054276 1.968750426889488" fill="#ff750a" stroke="none" /><path d="M 79.81627453868168 94.20196356495316 l -2.902850193849663 -0.8338812981616837 a24.02024788177342,24.02024788177342 0 0,0 0.11757808724577716,-0.39641485899458845 l 2.888066209492179 0.8837255439028113" fill="#ff2703" stroke="none" /><path d="M 79.91906864156998 93.8553929516997 l -2.702795319352926 -0.8270341087758936 a23.826497471322913,23.826497471322913 0 0,0 0.12338099719129164,-0.3911514779942872 l 2.6881588383934307 0.8734357531965952" fill="#ff2403" stroke="none" /><path d="M 80.52162464483688 92.15188598940014 l -2.657529374351945 -1.0707563200800374 a23.865132016597975,23.865132016597975 0 0,0 0.15680336466134664,-0.37971178505877295 l 2.638704322804396 1.1163426755921215" fill="#ff2403" stroke="none" /><path d="M 81.10775173730289 90.83032412892265 l -4.059313671837057 -1.9702573305303692 a25.512199179432564,25.512199179432564 0 0,0 0.19515615931971428,-0.39342290859828083 l 4.024797499563929 2.0398398276276115" fill="#ff3b05" stroke="none" /><line stroke="#e1ed5e" stroke-width="0.3" x1="26.266209847984243" x2="21.928928074336255" y1="57.711370442889674" y2="55.22380399835377" /><path d="M 25.398753493254645 57.213857153982495 a86.0,86.0 0 0,1 29.58750427330803,-30.492523968695096" fill="none" id="id11" stroke="none" /><text fill="#e1ed5e" style="font-size:6.75px; font-family:Arial;" text-anchor="middle"><textPath startOffset="21.46611528233685" xlink:href="#id11">November</textPath></text><path d="M 81.96595687620814 89.24020034530311 l -2.4768636210087522 -1.4777915385431155 a23.884219344721586,23.884219344721586 0 0,0 0.21368892786380259,-0.3512484116876684 l 2.4510588948587304 1.5202077234378584" fill="#ff2503" stroke="none" /><path d="M 82.34701348167596 88.62581576622439 l -7.140424915068984 -4.600723419073157 a29.494252406571523,29.494252406571523 0 0,0 0.27865518643174036,-0.42441096636900655 l 7.060173093279323 4.7229524494198305" fill="#ff720a" stroke="none" /><path d="M 82.95767976084542 87.72973835380427 l -2.3540179735253095 -1.6948640824528878 a23.900683519046687,23.900683519046687 0 0,0 0.24326045973807134,-0.3318069937011263 l 2.3244949012736047 1.7351335198255171" fill="#ff2503" stroke="none" /><path d="M 83.6137871275137 86.86637796730984 l -2.177101996187978 -1.7449568711851886 a23.790098131625854,23.790098131625854 0 0,0 0.25886063317748115,-0.3173325282497899 l 2.146742870934104 1.782173569043061" fill="#ff2303" stroke="none" /><path d="M 87.22198572758235 83.33499621200491 l -1.6944831302519276 -2.2099339680107666 a23.784794646230882,23.784794646230882 0 0,0 0.32704528267457245,-0.24632372655072327 l 1.6561916938189654 2.238774284067344" fill="#ff2303" stroke="none" /><path d="M 87.51073957382395 83.11751280151077 l -3.7442562220025075 -5.061337147180887 a27.295759554925652,27.295759554925652 0 0,0 0.38013203454852484,-0.27618208935670724 l 3.656578871100201 5.125038471354261" fill="#ff5407" stroke="none" /><path d="M 88.70189139769569 82.29822771554957 l -3.141603589792538 -4.922235509683199 a26.83935574598633,26.83935574598633 0 0,0 0.39157450301134394,-0.24520391786259071 l 3.0564099344089515 4.97558376886872" fill="#ff4e07" stroke="none" /><line stroke="#e1ed5e" stroke-width="0.3" x1="56.76296977257108" x2="54.21961505331056" y1="26.818313649435495" y2="22.513508569990535" /><path d="M 56.25429882871898 25.957352633546506 a86.0,86.0 0 0,1 42.26535254187918,-11.944610805530505" fill="none" id="id12" stroke="none" /><text fill="#e1ed5e" style="font-size:6.75px; font-family:Arial;" text-anchor="middle"><textPath startOffset="22.20632615414155" xlink:href="#id12">December</textPath></text><path d="M 96.75951476605007 79.25152402106235 l -0.9494463818595988 -6.079202349362594 a27.152897661794967,27.152897661794967 0 0,0 0.4624151654811568,-0.06814797513282495 l 0.8446622359497933 6.094644808656388" fill="#ff5207" stroke="none" /></svg>