<?xml version="1.0" encoding="utf-8" ?>
<svg baseProfile="full" height="200mm" version="1.1" viewBox="0,0,200,200" width="200mm" xmlns="http://www.w3.org/2000/svg" xmlns:ev="http://www.w3.org/2001/xml-events" xmlns:xlink="http://www.w3.org/1999/xlink"><defs /><rect fill="#1a1a1a" height="200" width="200" x="0" y="0" /><text alignment-baseline="middle" fill="#e1ed5e" style="dominant-baseline: central; font-size:9.0px; font-family:Arial;" text-anchor="middle" x="100.0" y="100.0">2020</text><line stroke="#e1ed5e" stroke-width="0.3" x1="100.0" x2="100.0" y1="15.0" y2="10.0" /><path d="M 100.0 14.0 a86.0,86.0 0 0,1 42.35913384403234,11.155469271406648" fill="none" id="id37" stroke="none" /><text fill="#e1ed5e" style="font-size:6.75px; font-family:Arial;" text-anchor="middle"><textPath startOffset="22.145653131862478" xlink:href="#id37">January</textPath></text><line stroke="#e1ed5e" stroke-width="0.3" x1="143.13028292997686" x2="145.6673583964461" y1="26.7553504044142" y2="22.446841604673864" /><path d="M 143.63769802327073 25.89364864446614 a86.0,86.0 0 0,1 29.32050498858742,28.57503671076993" fill="none" id="id38" stroke="none" /><text fill="#e1ed5e" style="font-size:6.75px; font-family:Arial;" text-anchor="middle"><textPath startOffset="20.669276256404974" xlink:href="#id38">February</textPath></text><line stroke="#e1ed5e" stroke-width="0.3" x1="172.87174338648825" x2="177.1583165268699" y1="56.24261187166439" y2="53.66864786411523" /><path d="M 173.72905801456457 55.72781907015455 a86.0,86.0 0 0,1 12.242430191666344,42.057860355516425" fill="none" id="id39" stroke="none" /><text fill="#e1ed5e" style="font-size:6.75px; font-family:Arial;" text-anchor="middle"><textPath startOffset="22.145653131862474" xlink:href="#id39">March</textPath></text><line stroke="#e1ed5e" stroke-width="0.3" x1="184.99686870605535" x2="189.99668451229388" y1="99.2704041080226" y2="99.22748670261217" /><path d="M 185.99683186730306 99.26182062694052 a86.0,86.0 0 0,1 -10.086455211305974,41.156179273409016" fill="none" id="id40" stroke="none" /><text fill="#e1ed5e" style="font-size:6.75px; font-family:Arial;" text-anchor="middle"><textPath startOffset="21.40746469413373" xlink:href="#id40">April</textPath></text><line stroke="#e1ed5e" stroke-width="0.3" x1="174.33088141563837" x2="178.70328620479359" y1="141.23008692659167" y2="143.65538615756765" /><path d="M 175.20536237346943 141.71514677278685 a86.0,86.0 0 0,1 -30.301960400862466,31.631185727798858" fill="none" id="id41" stroke="none" /><text fill="#e1ed5e" style="font-size:6.75px; font-family:Arial;" text-anchor="middle"><textPath startOffset="22.145653131862474" xlink:href="#id41">May</textPath></text><line stroke="#e1ed5e" stroke-width="0.3" x1="143.1302829299769" x2="145.66735839644613" y1="173.24464959558577" y2="177.55315839532614" /><path d="M 143.63769802327073 174.10635135553383 a86.0,86.0 0 0,1 -40.68552437913181,11.842963189579606" fill="none" id="id42" stroke="none" /><text fill="#e1ed5e" style="font-size:6.75px; font-family:Arial;" text-anchor="middle"><textPath startOffset="21.407464694133747" xlink:href="#id42">June</textPath></text><path d="M 109.71004243097381 118.62028667847754 l 3.166659320317661 6.072486786391339 a27.848563865647463,27.848563865647463 0 0,0 -0.4257817034109605,0.2174071715763849 l -3.061950395193118 -6.125951909640561" fill="#ff0100" stroke="none" /><path d="M 109.3889696526874 118.78422872680471 l 3.0434827237403765 6.089004195732412 a27.80725783156133,27.80725783156133 0 0,0 -0.4288140688037233,0.20975444919891637 l -2.938508405674584 -6.140352395028552" fill="#ff0000" stroke="none" /><path d="M 109.06512990194946 118.94263497670748 l 2.9504420506082356 6.165289123168674 a27.83490294490414,27.83490294490414 0 0,0 -0.43278142665725955,0.20256356009089066 l -2.84417191007947 -6.215028914830098" fill="#ff0000" stroke="none" /><path d="M 108.73861861582097 119.09545874513695 l 11.925759333306846 26.05993640016506 a49.65910014038479,49.65910014038479 0 0,0 -0.7781973467833756,0.3480777749455604 l -11.476648583667844 -26.260817926020472" fill="#c3ff1e" stroke="none" /><path d="M 108.4095320186766 119.2426549942271 l 4.598664347072218 10.52264397928876 a32.483629656685,32.483629656685 0 0,0 -0.5128777250147769,0.21891700321412008 l -4.41735154688701 -10.600035632162285" fill="#ff4a06" stroke="none" /><path d="M 108.07796709384702 119.3841803445677 l 10.274118075818505 24.65414322060622 a47.70925457922823,47.70925457922823 0 0,0 -0.7586806060315617,0.30854879766485693 l -9.849383008596503 -24.826879274850366" fill="#dcff1b" stroke="none" /><path d="M 107.407793817531 119.65005319985036 l 3.888193060978952 10.313894039371426 a32.022452337607376,32.022452337607376 0 0,0 -0.5160354886516665,0.18949537926919705 l -3.7105684206731584 -10.379120267649345" fill="#ff4306" stroke="none" /><path d="M 107.06938296918513 119.77432235084164 l 4.237323522953377 11.852548038905072 a33.58720801658281,33.58720801658281 0 0,0 -0.5445833553699818,0.1894343601489939 l -4.033234395538375 -11.923540831622656" fill="#ff5b08" stroke="none" /><path d="M 106.38641147887787 120.00534299687104 l 4.014980150593079 12.57686813696449 a34.20218458226702,34.20218458226702 0 0,0 -0.5608496493884457,0.17375265503348697 l -3.798489868333009 -12.643937379804623" fill="#ff6409" stroke="none" /><path d="M 106.0420521117495 120.11202640906438 l 5.440484392115043 18.10960311969861 a39.9091669719701,39.9091669719701 0 0,0 -0.657817074358958,0.1914809632171267 l -5.128807305374478 -18.200327777218252" fill="#ffb811" stroke="none" /><path d="M 105.69591212413111 120.21278271476187 l 5.416352374676318 19.22072378752114 a40.96930384271928,40.96930384271928 0 0,0 -0.6785659936788301,0.18494617902610902 l -5.085604980062794 -19.310870460691394" fill="#ffc712" stroke="none" /><path d="M 105.3480935250658 120.30758222061773 l 5.20532619733595 19.765471423059036 a41.4394051135652,41.4394051135652 0 0,0 -0.6894623237413373,0.17525862657360095 l -4.865258580369215 -19.851915281467907" fill="#ffcd13" stroke="none" /><path d="M 104.9986988182912 120.39639698878246 l 2.6721181079183793 10.903153742847184 a32.225817418915554,32.225817418915554 0 0,0 -0.5384287215117518,0.12706771221137425 l -2.4845572326667487 -10.947417598704783" fill="#ff4606" stroke="none" /><path d="M 104.29559338865022 120.5559693870025 l 8.827042701572607 42.24059475245307 a64.15303613763871,64.15303613763871 0 0,0 -1.0799201780245093,0.2160142805334135 l -8.100626038017138 -42.385898429649345" fill="#32ff47" stroke="none" /><path d="M 103.94208987418118 120.62667999033965 l 5.921403303637863 30.983284231501216 a52.544047280815526,52.544047280815526 0 0,0 -0.8874070728169662,0.16171512975218455 l -5.38866149726984 -31.080367535184763" fill="#9fff22" stroke="none" /><path d="M 103.58742460773223 120.69131181640829 l 10.762273823196699 62.07393544922487 a84.0,84.0 0 0,0 -1.4228899877877108,0.2341360060173172 l -9.695106332355914 -62.24953745373786" fill="#4dd2ff" stroke="none" /><path d="M 103.2317021107853 120.74984581791261 l 3.0171269058849166 19.372119076586163 a40.605663780745815,40.605663780745815 0 0,0 -0.6896676590822545,0.10135739587491142 l -2.684134141194977 -19.421057545759957" fill="#ffc112" stroke="none" /><path d="M 102.51750503828377 120.84855314841334 l 1.5354150144420455 12.715438915383261 a33.80780566988027,33.80780566988027 0 0,0 -0.576767762722621,0.06462803083549819 l -1.3169113501186251 -12.73992270672573" fill="#ff5e08" stroke="none" /><line stroke="#e1ed5e" stroke-width="0.3" x1="101.45913802915013" x2="101.54496967792366" y1="184.9874750549273" y2="189.98673829345242" /><path d="M 101.47630435890484 185.9873277026323 a86.0,86.0 0 0,1 -42.54439059252881,-10.42667462771756" fill="none" id="id43" stroke="none" /><text fill="#e1ed5e" style="font-size:6.75px; font-family:Arial;" text-anchor="middle"><textPath startOffset="22.145653131862474" xlink:href="#id43">July</textPath></text><path d="M 98.91894614982273 120.97215588758144 l -0.5092511292421192 9.879335859764367 a30.892452362415526,30.892452362415526 0 0,0 -0.5293725456711703,-0.031845737799582156 l 0.6787680270457359 -9.869138144140093" fill="#ff3104" stroke="none" /><path d="M 98.55909050195518 120.95050786540614 l -3.4495783411579732 50.1561120020577 a71.27459758063452,71.27459758063452 0 0,0 -1.2199190597808567,-0.09442945053439043 l 4.310066395714066 -50.08950478452825" fill="#3cffa0" stroke="none" /><path d="M 98.19965949673042 120.92268563240118 l -5.347998315966747 62.1518470113695 a83.3815130700776,83.3815130700776 0 0,0 -1.4250314974509004,-0.1349519644082628 l 6.414129376802662 -62.05088329145605" fill="#4cd8ff" stroke="none" /><path d="M 97.48249496171623 120.84855314841334 l -2.4477030497160808 20.270492550167035 a41.41774028745509,41.41774028745509 0 0,0 -0.7051314628539216,-0.09129338509013359 l 2.7953123344607964 -20.225487568876503" fill="#ffcd13" stroke="none" /><path d="M 96.76829788921471 120.74984581791261 l -4.172574145935141 26.790919219631895 a48.1139028477305,48.1139028477305 0 0,0 -0.8150094123265244,-0.13410948865087252 l 4.631861061314729 -26.715343732485355" fill="#d7ff1c" stroke="none" /><path d="M 95.00130118170881 120.39639698878247 l -2.8819300218677943 11.759257950252024 a33.107256840073575,33.107256840073575 0 0,0 -0.5508333474166468,-0.14001968289626368 l 3.0833686625098196 -11.708053035520498" fill="#ff5307" stroke="none" /><line stroke="#e1ed5e" stroke-width="0.3" x1="58.13341422392154" x2="55.67067388415222" y1="173.97424548756322" y2="178.32567169271397" /><path d="M 57.64086615596768 174.84453072859336 a86.0,86.0 0 0,1 -31.369924170532247,-30.572349798747897" fill="none" id="id44" stroke="none" /><text fill="#e1ed5e" style="font-size:6.75px; font-family:Arial;" text-anchor="middle"><textPath startOffset="22.145653131862474" xlink:href="#id44">August</textPath></text><line stroke="#e1ed5e" stroke-width="0.3" x1="26.387840678322732" x2="22.057713659400534" y1="142.50000000000003" y2="145.00000000000006" /><path d="M 25.521815274538284 143.00000000000003 a86.0,86.0 0 0,1 -11.493303480769212,-40.785679425670985" fill="none" id="id45" stroke="none" /><text fill="#e1ed5e" style="font-size:6.75px; font-family:Arial;" text-anchor="middle"><textPath startOffset="21.40746469413373" xlink:href="#id45">September</textPath></text><line stroke="#e1ed5e" stroke-width="0.3" x1="15.003131293944662" x2="10.003315487706104" y1="100.72959589197737" y2="100.7725132973878" /><path d="M 14.003168132696942 100.73817937305945 a86.0,86.0 0 0,1 10.791469493833604,-42.45332614584628" fill="none" id="id46" stroke="none" /><text fill="#e1ed5e" style="font-size:6.75px; font-family:Arial;" text-anchor="middle"><textPath startOffset="22.145653131862435" xlink:href="#id46">October</textPath></text><line stroke="#e1ed5e" stroke-width="0.3" x1="26.387840678322718" x2="22.05771365940052" y1="57.49999999999999" y2="54.99999999999999" /><path d="M 25.521815274538284 56.99999999999999 a86.0,86.0 0 0,1 29.574782752854787,-30.34633250058573" fill="none" id="id47" stroke="none" /><text fill="#e1ed5e" style="font-size:6.75px; font-family:Arial;" text-anchor="middle"><textPath startOffset="21.40746469413373" xlink:href="#id47">November</textPath></text><line stroke="#e1ed5e" stroke-width="0.3" x1="56.869717070023135" x2="54.33264160355391" y1="26.7553504044142" y2="22.446841604673864" /><path d="M 56.362301976729285 25.89364864446614 a86.0,86.0 0 0,1 42.16139366436587,-11.88097634709845" fill="none" id="id48" stroke="none" /><text fill="#e1ed5e" style="font-size:6.75px; font-family:Arial;" text-anchor="middle"><textPath startOffset="22.145653131862474" xlink:href="#id48">December</textPath></text></svg>